<svg width="71" height="70" viewBox="0 0 71 70" fill="none" xmlns="http://www.w3.org/2000/svg">
<rect x="0.833374" y="0.5" width="69" height="69" rx="7.5" fill="url(#paint0_linear_6002_5183)"/>
<rect x="0.833374" y="0.5" width="69" height="69" rx="7.5" fill="url(#paint1_linear_6002_5183)" fill-opacity="0.2"/>
<rect x="0.833374" y="0.5" width="69" height="69" rx="7.5" stroke="url(#paint2_linear_6002_5183)"/>
<path d="M31.7971 37.0473C31.7971 36.9415 31.8512 36.8463 31.9377 36.7405L36.404 31.2492C36.7392 30.826 37.3016 31.1116 37.1069 31.6301L35.6362 35.492H38.3938C38.5993 35.492 38.7831 35.6507 38.7831 35.8412C38.7831 35.947 38.7291 36.0634 38.6317 36.1585L34.1763 41.6392C33.841 42.0625 33.2678 41.7768 33.4625 41.269L34.944 37.3965H32.1756C31.9702 37.3965 31.7971 37.2484 31.7971 37.0473ZM25.9791 44.7288H44.6877C46.9587 44.7288 48.0834 43.639 48.0834 41.4594V31.228C48.0834 29.0484 46.9587 27.9586 44.6877 27.9586H43.1953V26.5408C43.1953 25.7367 42.7195 25.25 41.8868 25.25H38.6966C37.8747 25.25 37.3989 25.7367 37.3989 26.5408V27.9586H33.2786V26.5408C33.2786 25.7367 32.8028 25.25 31.9702 25.25H28.7799C27.9472 25.25 27.4822 25.7367 27.4822 26.5408V27.9586H25.9791C23.7189 27.9586 22.5834 29.0484 22.5834 31.228V41.4594C22.5834 43.639 23.7189 44.7288 25.9791 44.7288Z" fill="#9EFF00"/>
<defs>
<linearGradient id="paint0_linear_6002_5183" x1="35.3334" y1="0" x2="35.3334" y2="70" gradientUnits="userSpaceOnUse">
<stop stop-color="#242424"/>
<stop offset="1" stop-color="#242424" stop-opacity="0"/>
</linearGradient>
<linearGradient id="paint1_linear_6002_5183" x1="162.606" y1="-69.6023" x2="0.333381" y2="70" gradientUnits="userSpaceOnUse">
<stop offset="0.224072" stop-color="#9EFF00"/>
<stop offset="0.687143" stop-color="#9EFF00" stop-opacity="0"/>
</linearGradient>
<linearGradient id="paint2_linear_6002_5183" x1="35.3334" y1="0" x2="35.3334" y2="70" gradientUnits="userSpaceOnUse">
<stop stop-color="#2E2E2E"/>
<stop offset="1" stop-color="#2E2E2E" stop-opacity="0"/>
</linearGradient>
</defs>
</svg>
