<svg width="71" height="70" viewBox="0 0 71 70" fill="none" xmlns="http://www.w3.org/2000/svg">
<rect x="1.16669" y="0.5" width="69" height="69" rx="7.5" fill="url(#paint0_linear_6002_5172)"/>
<rect x="1.16669" y="0.5" width="69" height="69" rx="7.5" fill="url(#paint1_linear_6002_5172)" fill-opacity="0.2"/>
<rect x="1.16669" y="0.5" width="69" height="69" rx="7.5" stroke="url(#paint2_linear_6002_5172)"/>
<path d="M34.7292 26.6712C34.7292 26.2272 34.4966 25.826 34.2277 25.4727C33.9516 25.1101 33.7917 24.68 33.7917 24.2187C33.7917 22.9243 35.0509 21.875 36.6042 21.875C38.1575 21.875 39.4167 22.9243 39.4167 24.2188C39.4167 24.68 39.2568 25.1101 38.9807 25.4727C38.7117 25.826 38.4792 26.2272 38.4792 26.6712C38.4792 27.0866 38.8263 27.4182 39.241 27.3935C41.6293 27.251 43.979 26.9666 46.2819 26.5487C46.5353 26.5027 46.7965 26.5631 47.0042 26.7155C47.2118 26.868 47.3475 27.0991 47.3795 27.3547C47.6595 29.5915 47.8183 31.8658 47.849 34.1706C47.8551 34.6285 47.4833 34.9999 47.0254 35C46.5814 35 46.1801 34.7674 45.8269 34.4985C45.4643 34.2224 45.0342 34.0625 44.5729 34.0625C43.2785 34.0625 42.2292 35.3217 42.2292 36.875C42.2292 38.4283 43.2785 39.6875 44.5729 39.6875C45.0342 39.6875 45.4643 39.5276 45.8269 39.2515C46.1801 38.9826 46.5814 38.75 47.0254 38.75C47.4134 38.75 47.7215 39.0771 47.6935 39.4641C47.5451 41.5123 47.2955 43.5327 46.9496 45.5202C46.8818 45.9099 46.5765 46.2152 46.1867 46.283C43.9128 46.6787 41.5959 46.9484 39.2435 47.0846C38.8273 47.1087 38.4792 46.7756 38.4792 46.3587C38.4792 45.9147 38.7117 45.5135 38.9807 45.1602C39.2568 44.7976 39.4167 44.3675 39.4167 43.9062C39.4167 42.6118 38.1575 41.5625 36.6042 41.5625C35.0509 41.5625 33.7917 42.6118 33.7917 43.9062C33.7917 44.3675 33.9516 44.7976 34.2277 45.1602C34.4966 45.5135 34.7292 45.9147 34.7292 46.3587C34.7292 46.8106 34.3591 47.1757 33.9073 47.1628C31.9205 47.1065 29.9572 46.955 28.0219 46.7127C27.7663 46.6807 27.5351 46.5449 27.3827 46.3373C27.2302 46.1297 27.1699 45.8685 27.2159 45.6151C27.582 43.5976 27.8456 41.5442 28.0012 39.4604C28.0299 39.0756 27.7237 38.75 27.3379 38.75C26.8939 38.75 26.4926 38.9826 26.1394 39.2515C25.7768 39.5276 25.3467 39.6875 24.8854 39.6875C23.591 39.6875 22.5417 38.4283 22.5417 36.875C22.5417 35.3217 23.591 34.0625 24.8854 34.0625C25.3467 34.0625 25.7768 34.2224 26.1394 34.4985C26.4926 34.7674 26.8939 35 27.3379 35C27.7958 35 28.1677 34.6287 28.1614 34.1708C28.1334 32.1356 28.0025 30.1253 27.7737 28.1454C27.7408 27.861 27.8397 27.5772 28.0421 27.3748C28.2445 27.1724 28.5282 27.0736 28.8126 27.1064C30.4905 27.3003 32.1899 27.4239 33.908 27.4741C34.3594 27.4873 34.7292 27.1227 34.7292 26.6712Z" fill="#9EFF00"/>
<defs>
<linearGradient id="paint0_linear_6002_5172" x1="35.6667" y1="0" x2="35.6667" y2="70" gradientUnits="userSpaceOnUse">
<stop stop-color="#242424"/>
<stop offset="1" stop-color="#242424" stop-opacity="0"/>
</linearGradient>
<linearGradient id="paint1_linear_6002_5172" x1="162.939" y1="-69.6023" x2="0.666694" y2="70" gradientUnits="userSpaceOnUse">
<stop offset="0.224072" stop-color="#9EFF00"/>
<stop offset="0.687143" stop-color="#9EFF00" stop-opacity="0"/>
</linearGradient>
<linearGradient id="paint2_linear_6002_5172" x1="35.6667" y1="0" x2="35.6667" y2="70" gradientUnits="userSpaceOnUse">
<stop stop-color="#2E2E2E"/>
<stop offset="1" stop-color="#2E2E2E" stop-opacity="0"/>
</linearGradient>
</defs>
</svg>
