<svg width="70" height="70" viewBox="0 0 70 70" fill="none" xmlns="http://www.w3.org/2000/svg">
<rect x="0.5" y="0.5" width="69" height="69" rx="7.5" fill="url(#paint0_linear_6002_5155)"/>
<rect x="0.5" y="0.5" width="69" height="69" rx="7.5" fill="url(#paint1_linear_6002_5155)" fill-opacity="0.2"/>
<rect x="0.5" y="0.5" width="69" height="69" rx="7.5" stroke="url(#paint2_linear_6002_5155)"/>
<path fill-rule="evenodd" clip-rule="evenodd" d="M45.7482 21.875C45.279 21.875 44.8203 22.0139 44.4298 22.2742L38.0811 26.5067C36.4086 27.6216 34.8926 28.943 33.5664 30.4347C36.21 31.6552 38.3448 33.79 39.5653 36.4336C41.0569 35.1073 42.3783 33.5913 43.4933 31.9188L47.7258 25.5701C47.9861 25.1797 48.1249 24.721 48.1249 24.2517C48.1249 22.9391 47.0608 21.875 45.7482 21.875ZM35.3744 39.4061C36.2717 38.9076 37.1327 38.3521 37.9526 37.7441C36.9124 35.1544 34.8456 33.0876 32.2558 32.0473C31.6478 32.8672 31.0923 33.7282 30.5938 34.6256L30.2457 35.2523C32.4163 35.8731 34.1268 37.5837 34.7477 39.7543L35.3744 39.4061ZM28.4374 36.875C25.8486 36.875 23.7499 38.9736 23.7499 41.5625C23.7499 42.598 22.9105 43.4375 21.8749 43.4375C21.8325 43.4375 21.7902 43.4361 21.7482 43.4333C21.4031 43.4105 21.0734 43.5796 20.8905 43.8733C20.7077 44.167 20.7015 44.5375 20.8743 44.8372C22.0066 46.8002 24.1292 48.125 26.5624 48.125C30.1868 48.125 33.1249 45.1869 33.1249 41.5625C33.1249 38.9736 31.0263 36.875 28.4374 36.875Z" fill="#9EFF00"/>
<defs>
<linearGradient id="paint0_linear_6002_5155" x1="35" y1="0" x2="35" y2="70" gradientUnits="userSpaceOnUse">
<stop stop-color="#242424"/>
<stop offset="1" stop-color="#242424" stop-opacity="0"/>
</linearGradient>
<linearGradient id="paint1_linear_6002_5155" x1="162.273" y1="-69.6023" x2="6.57852e-06" y2="70" gradientUnits="userSpaceOnUse">
<stop offset="0.224072" stop-color="#9EFF00"/>
<stop offset="0.687143" stop-color="#9EFF00" stop-opacity="0"/>
</linearGradient>
<linearGradient id="paint2_linear_6002_5155" x1="35" y1="0" x2="35" y2="70" gradientUnits="userSpaceOnUse">
<stop stop-color="#2E2E2E"/>
<stop offset="1" stop-color="#2E2E2E" stop-opacity="0"/>
</linearGradient>
</defs>
</svg>
