<svg width="70" height="70" viewBox="0 0 70 70" fill="none" xmlns="http://www.w3.org/2000/svg">
<rect x="0.5" y="0.5" width="69" height="69" rx="7.5" fill="url(#paint0_linear_6002_5225)"/>
<rect x="0.5" y="0.5" width="69" height="69" rx="7.5" fill="url(#paint1_linear_6002_5225)" fill-opacity="0.2"/>
<rect x="0.5" y="0.5" width="69" height="69" rx="7.5" stroke="url(#paint2_linear_6002_5225)"/>
<path d="M34.728 47.4951C34.9281 47.4951 35.2407 47.42 35.5533 47.2575C42.6678 43.5314 44.9561 41.6683 44.9561 37.1795V27.7517C44.9561 26.4638 44.4058 26.0512 43.3556 25.6136C41.8927 25.0134 37.2163 23.3129 35.7658 22.8127C35.4282 22.7002 35.0781 22.6377 34.728 22.6377C34.3779 22.6377 34.0278 22.7127 33.7027 22.8127C32.2398 23.2879 27.5634 25.0259 26.1005 25.6136C25.0627 26.0387 24.5 26.4638 24.5 27.7517V37.1795C24.5 41.6683 26.9132 43.3188 33.9028 47.2575C34.2279 47.4326 34.528 47.4951 34.728 47.4951ZM29.0889 35.4789C29.0889 35.3289 29.1639 35.1414 29.3014 34.9789L36.366 26.1137C36.9037 25.4385 37.804 25.8887 37.4789 26.7264L35.1532 32.9783H39.5169C39.8545 32.9783 40.1046 33.2158 40.1046 33.5535C40.1046 33.7035 40.0296 33.8911 39.8921 34.0536L32.8275 42.9187C32.2898 43.5939 31.402 43.1437 31.7146 42.3185L34.0528 36.0542H29.6765C29.3514 36.0542 29.0889 35.8165 29.0889 35.4789Z" fill="#9EFF00"/>
<defs>
<linearGradient id="paint0_linear_6002_5225" x1="35" y1="0" x2="35" y2="70" gradientUnits="userSpaceOnUse">
<stop stop-color="#242424"/>
<stop offset="1" stop-color="#242424" stop-opacity="0"/>
</linearGradient>
<linearGradient id="paint1_linear_6002_5225" x1="162.273" y1="-69.6023" x2="6.57852e-06" y2="70" gradientUnits="userSpaceOnUse">
<stop offset="0.224072" stop-color="#9EFF00"/>
<stop offset="0.687143" stop-color="#9EFF00" stop-opacity="0"/>
</linearGradient>
<linearGradient id="paint2_linear_6002_5225" x1="35" y1="0" x2="35" y2="70" gradientUnits="userSpaceOnUse">
<stop stop-color="#2E2E2E"/>
<stop offset="1" stop-color="#2E2E2E" stop-opacity="0"/>
</linearGradient>
</defs>
</svg>
