<svg width="71" height="70" viewBox="0 0 71 70" fill="none" xmlns="http://www.w3.org/2000/svg">
<rect x="1" y="0.5" width="69" height="69" rx="7.5" fill="url(#paint0_linear_6002_5213)"/>
<rect x="1" y="0.5" width="69" height="69" rx="7.5" fill="url(#paint1_linear_6002_5213)" fill-opacity="0.2"/>
<rect x="1" y="0.5" width="69" height="69" rx="7.5" stroke="url(#paint2_linear_6002_5213)"/>
<path d="M32.2834 41.8952H42.9502C44.2825 41.8952 44.7577 41.5194 44.7577 40.7845C44.7577 38.63 42.0168 35.6571 37.6125 35.6571C33.2168 35.6571 30.4759 38.63 30.4759 40.7845C30.4759 41.5194 30.9511 41.8952 32.2834 41.8952ZM37.621 34.1623C39.4455 34.1623 41.0154 32.5589 41.0154 30.4712C41.0154 28.4086 39.4371 26.8804 37.621 26.8804C35.805 26.8804 34.2266 28.442 34.2266 30.4879C34.2266 32.5589 35.7965 34.1623 37.621 34.1623ZM23.1185 41.8952H29.5679C28.6853 40.6342 29.763 38.0956 31.5875 36.7093C30.6455 36.0914 29.432 35.632 27.8452 35.632C24.018 35.632 21.625 38.4129 21.625 40.7261C21.625 41.4777 22.0493 41.8952 23.1185 41.8952ZM27.8537 34.3544C29.432 34.3544 30.8068 32.9514 30.8068 31.1393C30.8068 29.3439 29.4236 28.0161 27.8537 28.0161C26.2753 28.0161 24.8836 29.3773 24.8921 31.156C24.8921 32.9514 26.2668 34.3544 27.8537 34.3544ZM43.9006 33.9118C44.1892 34.1038 44.588 34.0454 44.8171 33.7197C45.4705 32.8762 45.8609 31.632 45.8609 30.3543C45.8609 29.0766 45.4705 27.8407 44.8171 26.9889C44.588 26.6632 44.1892 26.6048 43.9006 26.7969C43.5612 27.0307 43.5018 27.4482 43.7733 27.7906C44.2655 28.4587 44.5455 29.3856 44.5455 30.3543C44.5455 31.323 44.257 32.2416 43.7733 32.918C43.5103 33.2687 43.5612 33.6696 43.9006 33.9118ZM47.0489 36.0914C47.3629 36.3001 47.7532 36.225 47.9824 35.9077C49.0686 34.4379 49.705 32.417 49.705 30.3543C49.705 28.2917 49.0771 26.2541 47.9824 24.801C47.7532 24.4837 47.3629 24.4085 47.0489 24.6173C46.735 24.8261 46.6841 25.2186 46.9301 25.5609C47.8551 26.847 48.3897 28.5756 48.3897 30.3543C48.3897 32.1331 47.8381 33.8533 46.9301 35.1477C46.6925 35.4901 46.735 35.8826 47.0489 36.0914Z" fill="#9EFF00"/>
<defs>
<linearGradient id="paint0_linear_6002_5213" x1="35.5" y1="0" x2="35.5" y2="70" gradientUnits="userSpaceOnUse">
<stop stop-color="#242424"/>
<stop offset="1" stop-color="#242424" stop-opacity="0"/>
</linearGradient>
<linearGradient id="paint1_linear_6002_5213" x1="162.773" y1="-69.6023" x2="0.500007" y2="70" gradientUnits="userSpaceOnUse">
<stop offset="0.224072" stop-color="#9EFF00"/>
<stop offset="0.687143" stop-color="#9EFF00" stop-opacity="0"/>
</linearGradient>
<linearGradient id="paint2_linear_6002_5213" x1="35.5" y1="0" x2="35.5" y2="70" gradientUnits="userSpaceOnUse">
<stop stop-color="#2E2E2E"/>
<stop offset="1" stop-color="#2E2E2E" stop-opacity="0"/>
</linearGradient>
</defs>
</svg>
