<svg width="71" height="70" viewBox="0 0 71 70" fill="none" xmlns="http://www.w3.org/2000/svg">
<rect x="1" y="0.5" width="69" height="69" rx="7.5" fill="url(#paint0_linear_6002_5236)"/>
<rect x="1" y="0.5" width="69" height="69" rx="7.5" fill="url(#paint1_linear_6002_5236)" fill-opacity="0.2"/>
<rect x="1" y="0.5" width="69" height="69" rx="7.5" stroke="url(#paint2_linear_6002_5236)"/>
<path d="M27.1281 40.8667L27.435 42.0942C27.8237 43.69 28.6727 44.5084 30.3605 44.5084H41.3774C43.0755 44.5084 43.9143 43.7105 44.3132 42.0942L44.6201 40.8667H27.1281ZM26.7905 39.4653H44.9678L46.8909 31.5888L46.0521 31.1081L41.3365 34.5451C40.9887 34.7906 40.7534 34.6985 40.559 34.4224L36.1196 27.712L35.6286 27.6915L31.1482 34.453C30.9743 34.719 30.7697 34.8008 30.4219 34.5553L25.7983 31.1797L24.8163 31.4354L26.7905 39.4653ZM25.1948 33.6347C26.545 33.6347 27.6293 32.5402 27.6293 31.1797C27.6293 29.8499 26.545 28.7451 25.1948 28.7451C23.8445 28.7451 22.75 29.8397 22.75 31.1797C22.75 32.5402 23.8548 33.6347 25.1948 33.6347ZM35.8741 29.3793C37.2141 29.3793 38.3086 28.2848 38.3086 26.9346C38.3086 25.6048 37.2141 24.5 35.8741 24.5C34.5136 24.5 33.4293 25.5945 33.4293 26.9346C33.4293 28.2848 34.5238 29.3793 35.8741 29.3793ZM46.5431 33.6347C47.8832 33.6347 48.9879 32.5402 48.9879 31.1797C48.9879 29.8397 47.8934 28.7451 46.5431 28.7451C45.2032 28.7451 44.1086 29.8499 44.1086 31.1797C44.1086 32.5402 45.2032 33.6347 46.5431 33.6347Z" fill="#9EFF00"/>
<defs>
<linearGradient id="paint0_linear_6002_5236" x1="35.5" y1="0" x2="35.5" y2="70" gradientUnits="userSpaceOnUse">
<stop stop-color="#242424"/>
<stop offset="1" stop-color="#242424" stop-opacity="0"/>
</linearGradient>
<linearGradient id="paint1_linear_6002_5236" x1="162.773" y1="-69.6023" x2="0.500007" y2="70" gradientUnits="userSpaceOnUse">
<stop offset="0.224072" stop-color="#9EFF00"/>
<stop offset="0.687143" stop-color="#9EFF00" stop-opacity="0"/>
</linearGradient>
<linearGradient id="paint2_linear_6002_5236" x1="35.5" y1="0" x2="35.5" y2="70" gradientUnits="userSpaceOnUse">
<stop stop-color="#2E2E2E"/>
<stop offset="1" stop-color="#2E2E2E" stop-opacity="0"/>
</linearGradient>
</defs>
</svg>
